# xmcd
#
# Track frame offsets:
#	183
#	14505
#	27100
#	45165
#	64683
#	79278
#	94108
#	110618
#	123948
#	140628
#	155785
#	172273
#	187718
#	204053
#	218510
#	233913
#	248278
#	263388
#
# Disc length: 3714 seconds
#
# Revision: 2
# Processed by: cddbd v1.4PL0 Copyright (c) Steve Scherf et al.
# Submitted via: audiograbber 1.81.02
#
DISCID=e10e8012
DTITLE=The Bellamy Brothers - The Very Best Of
DYEAR=1996
DGENRE=Country
TTITLE0=If I Said You Had A Beautiful Body
TTITLE1=Let Your Love Flow
TTITLE2=Old Hippie
TTITLE3=You Ain't Just Whistlin' Dixie
TTITLE4=Dancin'  Cowboys
TTITLE5=Lovers Live Longer
TTITLE6=Feelin' The Feelin'
TTITLE7=Do You Love As Good As You Look
TTITLE8=For All The Wrong Reasons
TTITLE9=Redneck Girl
TTITLE10=When I'm Away From You
TTITLE11=I'd Lie To You For Your Love
TTITLE12=Santa Fe
TTITLE13=Big Love
TTITLE14=Kids Of The Baby Boom
TTITLE15=Get Into Reggae Cowboy
TTITLE16=You'll Never Be Sorry
TTITLE17=I Need More Of You
EXTD=
EXTT0=
EXTT1=
EXTT2=
EXTT3=
EXTT4=
EXTT5=
EXTT6=
EXTT7=
EXTT8=
EXTT9=
EXTT10=
EXTT11=
EXTT12=
EXTT13=
EXTT14=
EXTT15=
EXTT16=
EXTT17=
PLAYORDER=
